<?xml version="1.0" standalone="no"?>
<!DOCTYPE svg PUBLIC "-//W3C//DTD SVG 20010904//EN"
 "http://www.w3.org/TR/2001/REC-SVG-20010904/DTD/svg10.dtd">
<svg version="1.0" xmlns="http://www.w3.org/2000/svg"
 width="491.000000pt" height="491.000000pt" viewBox="0 0 491.000000 491.000000"
 preserveAspectRatio="xMidYMid meet">
<metadata>
Created by potrace 1.11, written by Peter Selinger 2001-2013
</metadata>
<g transform="translate(0.000000,491.000000) scale(0.100000,-0.100000)"
fill="#000000" stroke="none">
<path d="M2320 4874 c-85 -40 -126 -81 -170 -169 -95 -192 -75 -415 51 -597
11 -14 19 -31 19 -36 0 -15 -625 -276 -712 -297 -25 -6 -27 -4 -33 32 -33 189
-147 349 -307 427 -214 106 -408 52 -508 -144 -34 -65 -36 -182 -6 -270 66
-193 251 -344 457 -375 24 -4 46 -8 48 -10 2 -2 -10 -34 -27 -72 -17 -37 -51
-120 -77 -183 -26 -63 -53 -128 -61 -145 -45 -103 -134 -318 -134 -326 0 -15
-23 -10 -55 12 -51 35 -128 71 -185 89 -64 19 -205 24 -271 8 -24 -5 -49 -11
-54 -12 -6 -1 -38 -15 -70 -30 -96 -47 -137 -86 -179 -173 -35 -72 -38 -82
-34 -153 7 -163 111 -279 303 -342 23 -7 88 -13 150 -13 129 0 186 15 302 81
42 24 80 44 83 44 4 0 31 -57 60 -128 28 -70 58 -140 65 -157 15 -34 61 -145
133 -321 l50 -122 -25 -11 c-13 -6 -34 -11 -47 -11 -13 0 -43 -7 -67 -15 -123
-42 -236 -128 -304 -231 -115 -173 -112 -366 7 -487 75 -75 157 -106 267 -100
225 12 420 193 478 446 9 40 18 73 19 75 2 3 222 -86 319 -128 22 -9 123 -50
224 -91 101 -41 185 -79 188 -85 2 -6 -17 -45 -42 -88 -25 -42 -53 -107 -64
-144 -50 -186 1 -405 121 -518 63 -59 124 -85 207 -89 185 -9 331 119 376 332
33 154 6 301 -79 438 -14 22 -30 47 -35 55 -8 13 51 40 356 165 200 83 367
149 371 148 4 -1 21 -48 37 -105 38 -127 64 -177 123 -240 170 -182 419 -228
575 -106 112 89 155 252 104 398 -71 198 -253 347 -462 377 -22 3 -41 6 -43 8
-6 5 264 661 300 728 8 16 11 16 41 -7 47 -36 153 -83 224 -100 228 -52 466
40 550 213 23 47 27 70 28 141 0 71 -4 94 -26 140 -67 142 -206 219 -404 225
-129 4 -214 -17 -320 -80 -73 -43 -80 -45 -92 -29 -16 22 -213 483 -264 619
l-38 100 57 12 c132 27 213 68 303 151 193 178 224 439 71 590 -118 117 -304
133 -461 39 -59 -35 -154 -123 -193 -177 -27 -38 -64 -122 -71 -161 -6 -33
-28 -112 -33 -121 -4 -6 -83 23 -169 62 -11 5 -144 59 -295 121 -151 62 -277
113 -279 115 -2 2 16 29 39 62 110 158 129 396 44 569 -32 66 -117 161 -153
170 -14 3 -44 14 -66 23 -69 30 -149 24 -235 -16z m200 -203 c100 -53 118
-264 35 -405 -24 -41 -80 -96 -97 -96 -20 0 -87 75 -113 127 -24 48 -30 72
-32 141 -3 101 17 161 70 214 43 44 81 49 137 19z m-1452 -625 c98 -51 194
-198 195 -302 1 -70 -14 -86 -81 -86 -160 0 -332 153 -332 295 0 40 5 51 35
81 48 48 106 52 183 12z m2947 8 c26 -12 37 -26 45 -53 14 -50 13 -63 -9 -121
-37 -97 -104 -161 -209 -200 -64 -24 -145 -28 -169 -9 -24 20 -13 131 21 205
62 135 223 225 321 178z m-1424 -184 c41 -16 182 -74 312 -129 131 -56 240
-101 242 -101 3 0 24 -8 48 -19 23 -10 65 -28 94 -40 28 -11 64 -26 80 -33 15
-6 30 -12 33 -13 3 0 26 -10 51 -22 44 -20 47 -24 88 -124 24 -57 116 -277
204 -489 201 -479 195 -429 81 -690 -45 -102 -100 -232 -123 -290 -23 -58 -46
-114 -50 -125 -5 -11 -28 -67 -51 -125 -68 -169 -108 -250 -127 -257 -25 -9
-562 -232 -598 -249 -16 -7 -111 -45 -210 -85 -210 -83 -207 -83 -366 -15 -57
24 -196 81 -309 126 -242 97 -526 218 -551 233 -10 6 -25 29 -35 52 -9 22 -22
54 -30 70 -71 166 -308 739 -334 805 -39 102 -37 143 10 246 17 38 83 195 147
349 63 154 121 294 128 310 7 17 32 77 56 134 24 57 51 107 59 111 32 16 102
45 595 245 171 69 324 132 340 139 17 8 37 16 45 19 24 9 90 -3 171 -33z
m-1977 -1288 c40 -18 136 -104 136 -122 0 -38 -137 -131 -215 -145 -47 -9
-137 -7 -174 4 -192 57 -159 259 48 290 59 8 151 -4 205 -27z m3911 23 c96
-16 173 -93 162 -162 -14 -81 -100 -128 -237 -128 -76 0 -92 4 -152 33 -59 29
-128 91 -128 114 0 18 85 89 135 113 51 26 135 45 165 40 8 -2 33 -6 55 -10z
m-3275 -1360 c43 -51 -7 -206 -97 -304 -82 -88 -212 -116 -271 -58 -23 24 -27
36 -27 85 1 130 116 250 272 285 63 15 107 11 123 -8z m2617 -16 c171 -82 256
-270 162 -355 -32 -28 -112 -28 -170 1 -115 59 -192 177 -196 302 l-2 73 32 8
c49 13 106 4 174 -29z m-1377 -496 c38 -27 59 -53 87 -113 23 -47 27 -69 27
-150 1 -82 -2 -102 -24 -145 -42 -85 -120 -116 -185 -76 -100 64 -109 318 -15
438 20 25 68 63 80 63 3 0 17 -8 30 -17z"/>
<path d="M2423 3677 c-12 -5 -25 -17 -29 -26 -12 -26 -14 -1192 -2 -1223 11
-30 57 -53 88 -43 11 4 34 19 49 33 48 46 163 154 241 227 41 38 113 105 160
150 47 44 115 107 150 139 100 91 112 126 60 169 -51 43 -66 35 -225 -114 -27
-26 -63 -60 -80 -75 -34 -31 -152 -141 -237 -221 -32 -30 -58 -51 -59 -46 -1
4 -2 230 -3 500 -1 478 -2 493 -21 512 -24 24 -62 32 -92 18z"/>
</g>
</svg>
